<svg width="666" height="444" viewBox="0 0 666 444" fill="none" xmlns="http://www.w3.org/2000/svg">
<g filter="url(#filter0_dd_8678_45018)">
<path d="M40 32.0556C40 23.2037 47.1759 16.0278 56.0278 16.0278H600.972C609.824 16.0278 617 23.2037 617 32.0556V347.556C617 356.408 609.824 363.583 600.972 363.583H56.0278C47.1759 363.583 40 356.408 40 347.556V32.0556Z" fill="white"/>
<path d="M68.0562 62.7407V49.1414H73.1559C74.2007 49.1414 75.0772 49.3229 75.7855 49.6859C76.4982 50.0489 77.0361 50.558 77.3991 51.2132C77.7665 51.8639 77.9502 52.6231 77.9502 53.4908C77.9502 54.3629 77.7643 55.1199 77.3924 55.7618C77.025 56.3992 76.4827 56.8928 75.7656 57.2426C75.0484 57.5879 74.1675 57.7605 73.1227 57.7605H69.4905V55.7153H72.7907C73.4016 55.7153 73.9019 55.6312 74.2914 55.463C74.681 55.2903 74.9687 55.0402 75.1547 54.7126C75.345 54.3806 75.4402 53.9733 75.4402 53.4908C75.4402 53.0083 75.345 52.5966 75.1547 52.2557C74.9643 51.9104 74.6743 51.6492 74.2848 51.4721C73.8952 51.2906 73.3928 51.1999 72.7774 51.1999H70.5197V62.7407H68.0562ZM75.0816 56.5785L78.4482 62.7407H75.6992L72.3923 56.5785H75.0816ZM84.481 62.9399C83.4584 62.9399 82.5752 62.7274 81.8315 62.3025C81.0922 61.8731 80.5233 61.2666 80.1249 60.483C79.7265 59.695 79.5273 58.7676 79.5273 57.7007C79.5273 56.6516 79.7265 55.7308 80.1249 54.9384C80.5278 54.1415 81.09 53.5218 81.8116 53.0791C82.5331 52.632 83.3809 52.4084 84.3548 52.4084C84.9834 52.4084 85.5766 52.5102 86.1344 52.7139C86.6966 52.9131 87.1924 53.223 87.6218 53.6435C88.0556 54.0641 88.3965 54.5997 88.6444 55.2505C88.8923 55.8968 89.0163 56.6671 89.0163 57.5613V58.2984H80.6561V56.6781H86.7121C86.7077 56.2177 86.6081 55.8083 86.4133 55.4497C86.2185 55.0867 85.9462 54.8011 85.5965 54.5931C85.2512 54.385 84.8484 54.281 84.388 54.281C83.8966 54.281 83.465 54.4005 83.0931 54.6396C82.7213 54.8742 82.4313 55.1841 82.2233 55.5692C82.0196 55.9499 81.9156 56.3683 81.9112 56.8242V58.2386C81.9112 58.8318 82.0196 59.3409 82.2365 59.7659C82.4535 60.1864 82.7567 60.5096 83.1463 60.7354C83.5358 60.9567 83.9918 61.0674 84.5142 61.0674C84.8639 61.0674 85.1804 61.0187 85.4637 60.9213C85.747 60.8195 85.9927 60.6712 86.2008 60.4764C86.4089 60.2816 86.566 60.0403 86.6723 59.7526L88.9167 60.0049C88.775 60.5981 88.505 61.1161 88.1066 61.5587C87.7126 61.997 87.2079 62.3379 86.5926 62.5814C85.9772 62.8204 85.2734 62.9399 84.481 62.9399ZM99.8682 52.5412L96.2359 62.7407H93.5798L89.9476 52.5412H92.5107L94.8548 60.1178H94.961L97.3117 52.5412H99.8682ZM105.7 62.9399C104.677 62.9399 103.794 62.7274 103.051 62.3025C102.311 61.8731 101.742 61.2666 101.344 60.483C100.946 59.695 100.746 58.7676 100.746 57.7007C100.746 56.6516 100.946 55.7308 101.344 54.9384C101.747 54.1415 102.309 53.5218 103.031 53.0791C103.752 52.632 104.6 52.4084 105.574 52.4084C106.202 52.4084 106.796 52.5102 107.353 52.7139C107.916 52.9131 108.411 53.223 108.841 53.6435C109.275 54.0641 109.616 54.5997 109.863 55.2505C110.111 55.8968 110.235 56.6671 110.235 57.5613V58.2984H101.875V56.6781H107.931C107.927 56.2177 107.827 55.8083 107.632 55.4497C107.438 55.0867 107.165 54.8011 106.816 54.5931C106.47 54.385 106.067 54.281 105.607 54.281C105.116 54.281 104.684 54.4005 104.312 54.6396C103.94 54.8742 103.65 55.1841 103.442 55.5692C103.239 55.9499 103.135 56.3683 103.13 56.8242V58.2386C103.13 58.8318 103.239 59.3409 103.456 59.7659C103.673 60.1864 103.976 60.5096 104.365 60.7354C104.755 60.9567 105.211 61.0674 105.733 61.0674C106.083 61.0674 106.399 61.0187 106.683 60.9213C106.966 60.8195 107.212 60.6712 107.42 60.4764C107.628 60.2816 107.785 60.0403 107.891 59.7526L110.136 60.0049C109.994 60.5981 109.724 61.1161 109.326 61.5587C108.932 61.997 108.427 62.3379 107.812 62.5814C107.196 62.8204 106.492 62.9399 105.7 62.9399ZM114.673 56.7645V62.7407H112.269V52.5412H114.566V54.2743H114.686C114.921 53.7033 115.295 53.2495 115.808 52.9131C116.326 52.5766 116.966 52.4084 117.727 52.4084C118.431 52.4084 119.044 52.5589 119.567 52.86C120.093 53.161 120.501 53.597 120.788 54.1681C121.081 54.7392 121.224 55.432 121.22 56.2465V62.7407H118.816V56.6184C118.816 55.9366 118.639 55.4032 118.285 55.0181C117.935 54.6329 117.451 54.4404 116.831 54.4404C116.41 54.4404 116.036 54.5333 115.709 54.7192C115.385 54.9007 115.131 55.1641 114.945 55.5094C114.763 55.8547 114.673 56.2731 114.673 56.7645ZM130.165 58.4511V52.5412H132.568V62.7407H130.238V60.9279H130.131C129.901 61.499 129.523 61.966 128.996 62.329C128.473 62.692 127.829 62.8735 127.064 62.8735C126.395 62.8735 125.804 62.7252 125.291 62.4286C124.781 62.1276 124.383 61.6916 124.095 61.1205C123.808 60.545 123.664 59.85 123.664 59.0354V52.5412H126.067V58.6636C126.067 59.3099 126.245 59.8234 126.599 60.2041C126.953 60.5848 127.418 60.7752 127.993 60.7752C128.347 60.7752 128.69 60.6889 129.022 60.5162C129.354 60.3436 129.627 60.0868 129.839 59.7459C130.056 59.4007 130.165 58.969 130.165 58.4511ZM139.556 62.9399C138.533 62.9399 137.65 62.7274 136.906 62.3025C136.167 61.8731 135.598 61.2666 135.2 60.483C134.801 59.695 134.602 58.7676 134.602 57.7007C134.602 56.6516 134.801 55.7308 135.2 54.9384C135.602 54.1415 136.165 53.5218 136.886 53.0791C137.608 52.632 138.455 52.4084 139.429 52.4084C140.058 52.4084 140.651 52.5102 141.209 52.7139C141.771 52.9131 142.267 53.223 142.696 53.6435C143.13 54.0641 143.471 54.5997 143.719 55.2505C143.967 55.8968 144.091 56.6671 144.091 57.5613V58.2984H135.731V56.6781H141.787C141.782 56.2177 141.683 55.8083 141.488 55.4497C141.293 55.0867 141.021 54.8011 140.671 54.5931C140.326 54.385 139.923 54.281 139.463 54.281C138.971 54.281 138.54 54.4005 138.168 54.6396C137.796 54.8742 137.506 55.1841 137.298 55.5692C137.094 55.9499 136.99 56.3683 136.986 56.8242V58.2386C136.986 58.8318 137.094 59.3409 137.311 59.7659C137.528 60.1864 137.831 60.5096 138.221 60.7354C138.61 60.9567 139.066 61.0674 139.589 61.0674C139.938 61.0674 140.255 61.0187 140.538 60.9213C140.822 60.8195 141.067 60.6712 141.275 60.4764C141.483 60.2816 141.641 60.0403 141.747 59.7526L143.991 60.0049C143.85 60.5981 143.58 61.1161 143.181 61.5587C142.787 61.997 142.283 62.3379 141.667 62.5814C141.052 62.8204 140.348 62.9399 139.556 62.9399ZM155.198 66.778C154.335 66.778 153.594 66.6607 152.974 66.4261C152.354 66.1959 151.856 65.886 151.48 65.4964C151.104 65.1069 150.842 64.6753 150.696 64.2016L152.861 63.677C152.958 63.8762 153.1 64.0732 153.286 64.268C153.472 64.4672 153.722 64.631 154.036 64.7594C154.355 64.8922 154.756 64.9586 155.238 64.9586C155.92 64.9586 156.484 64.7926 156.932 64.4606C157.379 64.133 157.602 63.5929 157.602 62.8403V60.908H157.483C157.359 61.1559 157.177 61.4104 156.938 61.6716C156.704 61.9328 156.391 62.1519 156.002 62.329C155.617 62.5061 155.132 62.5946 154.548 62.5946C153.764 62.5946 153.054 62.4109 152.416 62.0435C151.783 61.6716 151.278 61.1183 150.902 60.3834C150.53 59.6441 150.344 58.7189 150.344 57.6078C150.344 56.4878 150.53 55.5426 150.902 54.7724C151.278 53.9977 151.785 53.4111 152.423 53.0127C153.06 52.6098 153.771 52.4084 154.554 52.4084C155.152 52.4084 155.643 52.5102 156.028 52.7139C156.418 52.9131 156.728 53.1543 156.958 53.4377C157.188 53.7166 157.363 53.98 157.483 54.2279H157.616V52.5412H159.986V62.9067C159.986 63.7788 159.778 64.5004 159.362 65.0715C158.946 65.6425 158.377 66.0697 157.655 66.353C156.934 66.6364 156.115 66.778 155.198 66.778ZM155.218 60.7088C155.727 60.7088 156.161 60.5848 156.52 60.3369C156.878 60.089 157.151 59.7327 157.337 59.2678C157.523 58.803 157.616 58.2452 157.616 57.5945C157.616 56.9526 157.523 56.3904 157.337 55.9079C157.155 55.4253 156.885 55.0513 156.527 54.7856C156.172 54.5156 155.736 54.3806 155.218 54.3806C154.683 54.3806 154.236 54.52 153.877 54.7989C153.518 55.0778 153.248 55.4607 153.067 55.9477C152.885 56.4302 152.795 56.9792 152.795 57.5945C152.795 58.2187 152.885 58.7654 153.067 59.2346C153.253 59.6995 153.525 60.0625 153.884 60.3237C154.247 60.5804 154.692 60.7088 155.218 60.7088ZM162.45 62.7407V52.5412H164.78V54.2411H164.887C165.073 53.6524 165.391 53.1986 165.843 52.8799C166.299 52.5567 166.819 52.3951 167.403 52.3951C167.536 52.3951 167.684 52.4018 167.848 52.4151C168.016 52.4239 168.156 52.4394 168.267 52.4615V54.6728C168.165 54.6373 168.003 54.6064 167.782 54.5798C167.565 54.5488 167.355 54.5333 167.151 54.5333C166.713 54.5333 166.319 54.6285 165.969 54.8188C165.624 55.0048 165.351 55.2637 165.152 55.5958C164.953 55.9278 164.853 56.3107 164.853 56.7445V62.7407H162.45ZM173.893 62.9399C172.896 62.9399 172.033 62.7208 171.303 62.2825C170.572 61.8443 170.006 61.2312 169.603 60.4432C169.204 59.6552 169.005 58.7344 169.005 57.6808C169.005 56.6272 169.204 55.7042 169.603 54.9118C170.006 54.1194 170.572 53.5041 171.303 53.0658C172.033 52.6276 172.896 52.4084 173.893 52.4084C174.889 52.4084 175.752 52.6276 176.482 53.0658C177.213 53.5041 177.777 54.1194 178.176 54.9118C178.578 55.7042 178.78 56.6272 178.78 57.6808C178.78 58.7344 178.578 59.6552 178.176 60.4432C177.777 61.2312 177.213 61.8443 176.482 62.2825C175.752 62.7208 174.889 62.9399 173.893 62.9399ZM173.906 61.0142C174.446 61.0142 174.897 60.8659 175.26 60.5693C175.623 60.2683 175.893 59.8655 176.071 59.3608C176.252 58.8561 176.343 58.2939 176.343 57.6742C176.343 57.05 176.252 56.4856 176.071 55.9809C175.893 55.4718 175.623 55.0668 175.26 54.7657C174.897 54.4647 174.446 54.3142 173.906 54.3142C173.352 54.3142 172.892 54.4647 172.525 54.7657C172.162 55.0668 171.889 55.4718 171.708 55.9809C171.531 56.4856 171.442 57.05 171.442 57.6742C171.442 58.2939 171.531 58.8561 171.708 59.3608C171.889 59.8655 172.162 60.2683 172.525 60.5693C172.892 60.8659 173.352 61.0142 173.906 61.0142ZM182.633 62.7407L179.751 52.5412H182.201L183.994 59.7127H184.087L185.92 52.5412H188.343L190.176 59.6729H190.276L192.042 52.5412H194.499L191.611 62.7407H189.107L187.195 55.8481H187.055L185.143 62.7407H182.633ZM201.27 52.5412V54.4005H195.407V52.5412H201.27ZM196.855 50.0976H199.258V59.6729C199.258 59.9961 199.307 60.244 199.405 60.4166C199.506 60.5848 199.639 60.6999 199.803 60.7619C199.967 60.8239 200.148 60.8549 200.347 60.8549C200.498 60.8549 200.635 60.8438 200.759 60.8217C200.888 60.7995 200.985 60.7796 201.051 60.7619L201.456 62.6411C201.328 62.6854 201.144 62.7341 200.905 62.7872C200.671 62.8403 200.383 62.8713 200.042 62.8802C199.44 62.8979 198.898 62.8071 198.415 62.6079C197.933 62.4043 197.55 62.09 197.266 61.665C196.987 61.24 196.85 60.7088 196.855 60.0713V50.0976ZM205.904 56.7645V62.7407H203.5V49.1414H205.851V54.2743H205.97C206.209 53.6989 206.579 53.2451 207.079 52.9131C207.584 52.5766 208.226 52.4084 209.005 52.4084C209.713 52.4084 210.331 52.5567 210.857 52.8533C211.384 53.1499 211.791 53.5838 212.079 54.1548C212.371 54.7259 212.517 55.4231 212.517 56.2465V62.7407H210.114V56.6184C210.114 55.9322 209.937 55.3988 209.582 55.0181C209.233 54.6329 208.741 54.4404 208.108 54.4404C207.683 54.4404 207.303 54.5333 206.966 54.7192C206.634 54.9007 206.373 55.1641 206.183 55.5094C205.997 55.8547 205.904 56.2731 205.904 56.7645Z" fill="#181D27"/>
<line x1="67.3827" y1="83.765" x2="590.047" y2="83.765" stroke="#F5F5F5" stroke-width="1.33565" stroke-linecap="round"/>
<line x1="67.3827" y1="129.627" x2="590.047" y2="129.627" stroke="#F5F5F5" stroke-width="1.33565" stroke-linecap="round"/>
<line x1="67.3827" y1="172.151" x2="590.047" y2="172.151" stroke="#F5F5F5" stroke-width="1.33565" stroke-linecap="round"/>
<line x1="67.3827" y1="214.674" x2="590.047" y2="214.674" stroke="#F5F5F5" stroke-width="1.33565" stroke-linecap="round"/>
<line x1="67.3827" y1="257.197" x2="590.047" y2="257.197" stroke="#F5F5F5" stroke-width="1.33565" stroke-linecap="round"/>
<line x1="67.3827" y1="299.72" x2="590.047" y2="299.72" stroke="#F5F5F5" stroke-width="1.33565" stroke-linecap="round"/>
<path d="M84.1628 318.084H85.5743V326.417C85.5743 327.161 85.4377 327.793 85.1645 328.312C84.8913 328.832 84.5062 329.227 84.0091 329.496C83.512 329.766 82.9258 329.9 82.2504 329.9C81.6129 329.9 81.0456 329.785 80.5486 329.553C80.0515 329.318 79.6606 328.984 79.3761 328.551C79.0915 328.119 78.9492 327.605 78.9492 327.009H80.338C80.338 327.339 80.4195 327.627 80.5827 327.874C80.7497 328.117 80.9773 328.307 81.2657 328.443C81.5541 328.58 81.8823 328.648 82.2504 328.648C82.6564 328.648 83.0017 328.563 83.2862 328.392C83.5708 328.221 83.7871 327.971 83.9351 327.641C84.0869 327.307 84.1628 326.899 84.1628 326.417V318.084ZM90.7936 329.946C90.2396 329.946 89.7368 329.842 89.2853 329.633C88.8337 329.42 88.4752 329.115 88.2096 328.716C87.9439 328.314 87.8111 327.829 87.8111 327.259C87.8111 326.759 87.9098 326.353 88.1071 326.041C88.3044 325.726 88.5681 325.48 88.8982 325.301C89.2284 325.123 89.5926 324.99 89.9911 324.903C90.3933 324.812 90.7974 324.74 91.2034 324.687C91.7346 324.618 92.1653 324.567 92.4954 324.533C92.8293 324.495 93.0721 324.433 93.2239 324.345C93.3795 324.258 93.4573 324.106 93.4573 323.89V323.844C93.4573 323.283 93.3036 322.846 92.9963 322.535C92.6927 322.224 92.2317 322.069 91.6132 322.069C90.9719 322.069 90.4692 322.209 90.1049 322.49C89.7406 322.771 89.4845 323.07 89.3365 323.389L88.0616 322.934C88.2892 322.402 88.5928 321.989 88.9722 321.693C89.3555 321.393 89.7729 321.184 90.2244 321.067C90.6797 320.945 91.1275 320.885 91.5676 320.885C91.8484 320.885 92.171 320.919 92.5352 320.987C92.9033 321.052 93.2581 321.186 93.5996 321.391C93.9449 321.596 94.2314 321.905 94.459 322.319C94.6867 322.733 94.8005 323.287 94.8005 323.981V329.741H93.4573V328.557H93.389C93.2979 328.747 93.1461 328.95 92.9337 329.166C92.7212 329.382 92.4385 329.566 92.0856 329.718C91.7327 329.87 91.302 329.946 90.7936 329.946ZM90.9985 328.739C91.5297 328.739 91.9774 328.635 92.3417 328.426C92.7098 328.217 92.9868 327.948 93.1727 327.618C93.3624 327.288 93.4573 326.941 93.4573 326.576V325.347C93.4004 325.415 93.2752 325.478 93.0816 325.535C92.8919 325.588 92.6718 325.635 92.4214 325.677C92.1748 325.715 91.9338 325.749 91.6986 325.78C91.4671 325.806 91.2793 325.829 91.1351 325.848C90.786 325.893 90.4597 325.967 90.1561 326.07C89.8563 326.168 89.6135 326.318 89.4276 326.519C89.2454 326.717 89.1544 326.986 89.1544 327.328C89.1544 327.794 89.327 328.147 89.6723 328.386C90.0214 328.622 90.4635 328.739 90.9985 328.739ZM98.5955 324.482V329.741H97.2522V320.999H98.5499V322.365H98.6638C98.8687 321.921 99.1798 321.564 99.5972 321.295C100.015 321.021 100.553 320.885 101.214 320.885C101.806 320.885 102.324 321.006 102.767 321.249C103.211 321.488 103.557 321.852 103.803 322.342C104.05 322.827 104.173 323.442 104.173 324.186V329.741H102.83V324.277C102.83 323.59 102.652 323.055 102.295 322.672C101.938 322.285 101.449 322.091 100.827 322.091C100.398 322.091 100.015 322.184 99.6769 322.37C99.343 322.556 99.0792 322.827 98.8857 323.184C98.6922 323.541 98.5955 323.973 98.5955 324.482Z" fill="#535862"/>
<path d="M157.498 318.084H159.182L163.144 327.76H163.28L167.242 318.084H168.926V329.741H167.606V320.885H167.492L163.849 329.741H162.575L158.932 320.885H158.818V329.741H157.498V318.084ZM174.147 329.946C173.593 329.946 173.09 329.842 172.639 329.633C172.187 329.42 171.829 329.115 171.563 328.716C171.298 328.314 171.165 327.829 171.165 327.259C171.165 326.759 171.263 326.353 171.461 326.041C171.658 325.726 171.922 325.48 172.252 325.301C172.582 325.123 172.946 324.99 173.345 324.903C173.747 324.812 174.151 324.74 174.557 324.687C175.088 324.618 175.519 324.567 175.849 324.533C176.183 324.495 176.426 324.433 176.577 324.345C176.733 324.258 176.811 324.106 176.811 323.89V323.844C176.811 323.283 176.657 322.846 176.35 322.535C176.046 322.224 175.585 322.069 174.967 322.069C174.325 322.069 173.823 322.209 173.458 322.49C173.094 322.771 172.838 323.07 172.69 323.389L171.415 322.934C171.643 322.402 171.946 321.989 172.326 321.693C172.709 321.393 173.126 321.184 173.578 321.067C174.033 320.945 174.481 320.885 174.921 320.885C175.202 320.885 175.525 320.919 175.889 320.987C176.257 321.052 176.612 321.186 176.953 321.391C177.298 321.596 177.585 321.905 177.813 322.319C178.04 322.733 178.154 323.287 178.154 323.981V329.741H176.811V328.557H176.743C176.651 328.747 176.5 328.95 176.287 329.166C176.075 329.382 175.792 329.566 175.439 329.718C175.086 329.87 174.656 329.946 174.147 329.946ZM174.352 328.739C174.883 328.739 175.331 328.635 175.695 328.426C176.063 328.217 176.34 327.948 176.526 327.618C176.716 327.288 176.811 326.941 176.811 326.576V325.347C176.754 325.415 176.629 325.478 176.435 325.535C176.245 325.588 176.025 325.635 175.775 325.677C175.528 325.715 175.287 325.749 175.052 325.78C174.821 325.806 174.633 325.829 174.489 325.848C174.14 325.893 173.813 325.967 173.51 326.07C173.21 326.168 172.967 326.318 172.781 326.519C172.599 326.717 172.508 326.986 172.508 327.328C172.508 327.794 172.681 328.147 173.026 328.386C173.375 328.622 173.817 328.739 174.352 328.739ZM180.606 329.741V320.999H181.903V322.319H181.995C182.154 321.886 182.442 321.535 182.86 321.266C183.277 320.997 183.748 320.862 184.271 320.862C184.37 320.862 184.493 320.864 184.641 320.868C184.789 320.871 184.901 320.877 184.977 320.885V322.251C184.931 322.239 184.827 322.222 184.664 322.199C184.505 322.173 184.336 322.16 184.157 322.16C183.732 322.16 183.353 322.249 183.019 322.427C182.689 322.602 182.427 322.845 182.234 323.156C182.044 323.463 181.949 323.814 181.949 324.209V329.741H180.606Z" fill="#535862"/>
<path d="M236.79 318.084H238.475L242.436 327.76H242.573L246.534 318.084H248.219V329.741H246.898V320.885H246.784L243.142 329.741H241.867L238.224 320.885H238.11V329.741H236.79V318.084ZM253.439 329.946C252.885 329.946 252.383 329.842 251.931 329.633C251.48 329.42 251.121 329.115 250.855 328.716C250.59 328.314 250.457 327.829 250.457 327.259C250.457 326.759 250.556 326.353 250.753 326.041C250.95 325.726 251.214 325.48 251.544 325.301C251.874 325.123 252.238 324.99 252.637 324.903C253.039 324.812 253.443 324.74 253.849 324.687C254.38 324.618 254.811 324.567 255.141 324.533C255.475 324.495 255.718 324.433 255.87 324.345C256.025 324.258 256.103 324.106 256.103 323.89V323.844C256.103 323.283 255.949 322.846 255.642 322.535C255.339 322.224 254.878 322.069 254.259 322.069C253.618 322.069 253.115 322.209 252.751 322.49C252.386 322.771 252.13 323.07 251.982 323.389L250.707 322.934C250.935 322.402 251.239 321.989 251.618 321.693C252.001 321.393 252.419 321.184 252.87 321.067C253.326 320.945 253.773 320.885 254.214 320.885C254.494 320.885 254.817 320.919 255.181 320.987C255.549 321.052 255.904 321.186 256.245 321.391C256.591 321.596 256.877 321.905 257.105 322.319C257.333 322.733 257.446 323.287 257.446 323.981V329.741H256.103V328.557H256.035C255.944 328.747 255.792 328.95 255.58 329.166C255.367 329.382 255.084 329.566 254.731 329.718C254.379 329.87 253.948 329.946 253.439 329.946ZM253.644 328.739C254.176 328.739 254.623 328.635 254.988 328.426C255.356 328.217 255.633 327.948 255.819 327.618C256.008 327.288 256.103 326.941 256.103 326.576V325.347C256.046 325.415 255.921 325.478 255.727 325.535C255.538 325.588 255.318 325.635 255.067 325.677C254.821 325.715 254.58 325.749 254.344 325.78C254.113 325.806 253.925 325.829 253.781 325.848C253.432 325.893 253.106 325.967 252.802 326.07C252.502 326.168 252.259 326.318 252.073 326.519C251.891 326.717 251.8 326.986 251.8 327.328C251.8 327.794 251.973 328.147 252.318 328.386C252.667 328.622 253.109 328.739 253.644 328.739ZM260.45 333.019C260.223 333.019 260.019 333 259.841 332.962C259.663 332.928 259.54 332.894 259.471 332.86L259.813 331.676C260.139 331.76 260.427 331.79 260.678 331.767C260.928 331.744 261.15 331.633 261.344 331.431C261.541 331.234 261.721 330.913 261.884 330.47L262.135 329.787L258.902 320.999H260.359L262.772 327.965H262.863L265.277 320.999H266.734L263.023 331.016C262.856 331.467 262.649 331.841 262.402 332.137C262.156 332.437 261.869 332.659 261.543 332.803C261.22 332.947 260.856 333.019 260.45 333.019Z" fill="#535862"/>
<path d="M323.27 318.084H324.681V326.417C324.681 327.161 324.545 327.793 324.271 328.312C323.998 328.832 323.613 329.227 323.116 329.496C322.619 329.766 322.033 329.9 321.357 329.9C320.72 329.9 320.152 329.785 319.655 329.553C319.158 329.318 318.767 328.984 318.483 328.551C318.198 328.119 318.056 327.605 318.056 327.009H319.445C319.445 327.339 319.526 327.627 319.69 327.874C319.856 328.117 320.084 328.307 320.373 328.443C320.661 328.58 320.989 328.648 321.357 328.648C321.763 328.648 322.108 328.563 322.393 328.392C322.678 328.221 322.894 327.971 323.042 327.641C323.194 327.307 323.27 326.899 323.27 326.417V318.084ZM332.837 326.167V320.999H334.181V329.741H332.837V328.261H332.746C332.541 328.705 332.223 329.083 331.79 329.394C331.357 329.701 330.811 329.855 330.151 329.855C329.604 329.855 329.119 329.735 328.694 329.496C328.269 329.253 327.935 328.889 327.692 328.403C327.449 327.914 327.328 327.297 327.328 326.554V320.999H328.671V326.463C328.671 327.1 328.849 327.608 329.206 327.988C329.566 328.367 330.026 328.557 330.583 328.557C330.917 328.557 331.257 328.472 331.602 328.301C331.951 328.13 332.243 327.868 332.479 327.516C332.718 327.163 332.837 326.713 332.837 326.167ZM337.984 318.084V329.741H336.641V318.084H337.984Z" fill="#535862"/>
<path d="M397.622 320.999C397.554 320.422 397.277 319.974 396.791 319.655C396.305 319.337 395.71 319.177 395.004 319.177C394.488 319.177 394.036 319.261 393.649 319.428C393.266 319.595 392.966 319.824 392.75 320.116C392.538 320.409 392.431 320.741 392.431 321.112C392.431 321.424 392.505 321.691 392.653 321.915C392.805 322.135 392.999 322.319 393.234 322.467C393.469 322.611 393.716 322.731 393.974 322.826C394.232 322.917 394.469 322.991 394.685 323.048L395.869 323.366C396.173 323.446 396.51 323.556 396.882 323.696C397.258 323.837 397.616 324.028 397.958 324.271C398.303 324.51 398.588 324.818 398.812 325.193C399.036 325.569 399.148 326.03 399.148 326.576C399.148 327.206 398.982 327.775 398.652 328.284C398.326 328.792 397.848 329.196 397.218 329.496C396.592 329.796 395.831 329.946 394.936 329.946C394.101 329.946 393.378 329.811 392.767 329.542C392.16 329.272 391.682 328.897 391.333 328.415C390.988 327.933 390.792 327.373 390.747 326.736H392.204C392.242 327.176 392.39 327.54 392.648 327.829C392.909 328.113 393.24 328.326 393.638 328.466C394.04 328.603 394.473 328.671 394.936 328.671C395.474 328.671 395.958 328.584 396.387 328.409C396.816 328.231 397.155 327.984 397.406 327.669C397.656 327.35 397.781 326.979 397.781 326.554C397.781 326.167 397.673 325.852 397.457 325.609C397.241 325.366 396.956 325.169 396.603 325.017C396.25 324.865 395.869 324.732 395.459 324.618L394.025 324.209C393.114 323.947 392.393 323.573 391.862 323.087C391.331 322.602 391.065 321.966 391.065 321.181C391.065 320.528 391.242 319.959 391.595 319.473C391.951 318.984 392.429 318.604 393.029 318.335C393.632 318.062 394.306 317.925 395.049 317.925C395.801 317.925 396.469 318.06 397.053 318.329C397.637 318.595 398.1 318.959 398.442 319.422C398.787 319.885 398.969 320.41 398.988 320.999H397.622ZM404.952 329.923C404.109 329.923 403.383 329.737 402.772 329.365C402.165 328.99 401.696 328.466 401.366 327.794C401.04 327.119 400.876 326.334 400.876 325.438C400.876 324.543 401.04 323.753 401.366 323.07C401.696 322.384 402.155 321.848 402.743 321.465C403.335 321.078 404.026 320.885 404.815 320.885C405.27 320.885 405.72 320.961 406.164 321.112C406.608 321.264 407.012 321.511 407.376 321.852C407.741 322.19 408.031 322.638 408.247 323.196C408.463 323.753 408.572 324.44 408.572 325.256V325.825H401.833V324.664H407.206C407.206 324.171 407.107 323.731 406.91 323.344C406.716 322.956 406.439 322.651 406.079 322.427C405.722 322.203 405.301 322.091 404.815 322.091C404.28 322.091 403.817 322.224 403.426 322.49C403.039 322.752 402.741 323.093 402.533 323.514C402.324 323.935 402.22 324.387 402.22 324.869V325.643C402.22 326.303 402.333 326.863 402.561 327.322C402.793 327.777 403.113 328.125 403.523 328.364C403.933 328.599 404.409 328.716 404.952 328.716C405.304 328.716 405.623 328.667 405.908 328.568C406.196 328.466 406.445 328.314 406.653 328.113C406.862 327.908 407.023 327.654 407.137 327.35L408.435 327.715C408.298 328.155 408.069 328.542 407.746 328.876C407.424 329.206 407.025 329.464 406.551 329.65C406.077 329.832 405.544 329.923 404.952 329.923ZM410.615 333.019V320.999H411.913V322.387H412.072C412.171 322.236 412.307 322.042 412.482 321.807C412.66 321.568 412.914 321.355 413.244 321.169C413.578 320.98 414.03 320.885 414.599 320.885C415.335 320.885 415.984 321.069 416.546 321.437C417.107 321.805 417.545 322.327 417.86 323.002C418.175 323.677 418.333 324.474 418.333 325.393C418.333 326.318 418.175 327.121 417.86 327.8C417.545 328.476 417.109 328.999 416.551 329.371C415.993 329.739 415.35 329.923 414.622 329.923C414.06 329.923 413.611 329.83 413.273 329.644C412.935 329.454 412.675 329.24 412.493 329.001C412.311 328.758 412.171 328.557 412.072 328.398H411.958V333.019H410.615ZM411.935 325.37C411.935 326.03 412.032 326.612 412.226 327.117C412.419 327.618 412.702 328.011 413.074 328.295C413.445 328.576 413.901 328.716 414.44 328.716C415.001 328.716 415.47 328.568 415.845 328.273C416.225 327.973 416.51 327.571 416.699 327.066C416.893 326.557 416.99 325.992 416.99 325.37C416.99 324.755 416.895 324.201 416.705 323.708C416.519 323.211 416.236 322.818 415.857 322.53C415.481 322.237 415.009 322.091 414.44 322.091C413.893 322.091 413.434 322.23 413.062 322.507C412.69 322.78 412.41 323.163 412.22 323.657C412.03 324.146 411.935 324.717 411.935 325.37Z" fill="#535862"/>
<path d="M480.505 318.084V329.741H479.139L472.787 320.589H472.673V329.741H471.261V318.084H472.627L479.002 327.259H479.116V318.084H480.505ZM486.699 329.923C485.909 329.923 485.217 329.735 484.621 329.36C484.029 328.984 483.566 328.458 483.233 327.783C482.902 327.108 482.737 326.318 482.737 325.415C482.737 324.505 482.902 323.71 483.233 323.03C483.566 322.351 484.029 321.824 484.621 321.448C485.217 321.073 485.909 320.885 486.699 320.885C487.488 320.885 488.179 321.073 488.771 321.448C489.366 321.824 489.829 322.351 490.159 323.03C490.493 323.71 490.66 324.505 490.66 325.415C490.66 326.318 490.493 327.108 490.159 327.783C489.829 328.458 489.366 328.984 488.771 329.36C488.179 329.735 487.488 329.923 486.699 329.923ZM486.699 328.716C487.298 328.716 487.792 328.563 488.179 328.255C488.566 327.948 488.852 327.544 489.038 327.043C489.224 326.542 489.317 326 489.317 325.415C489.317 324.831 489.224 324.286 489.038 323.782C488.852 323.277 488.566 322.869 488.179 322.558C487.792 322.247 487.298 322.091 486.699 322.091C486.099 322.091 485.606 322.247 485.219 322.558C484.832 322.869 484.545 323.277 484.359 323.782C484.174 324.286 484.081 324.831 484.081 325.415C484.081 326 484.174 326.542 484.359 327.043C484.545 327.544 484.832 327.948 485.219 328.255C485.606 328.563 486.099 328.716 486.699 328.716ZM499.546 320.999L496.313 329.741H494.947L491.715 320.999H493.172L495.585 327.965H495.676L498.089 320.999H499.546Z" fill="#535862"/>
<path d="M555.238 329.741H551.641V318.084H555.398C556.528 318.084 557.496 318.318 558.3 318.784C559.105 319.247 559.721 319.913 560.15 320.782C560.579 321.647 560.793 322.683 560.793 323.89C560.793 325.104 560.577 326.15 560.145 327.026C559.712 327.899 559.082 328.57 558.255 329.041C557.428 329.508 556.422 329.741 555.238 329.741ZM553.053 328.489H555.147C556.111 328.489 556.91 328.303 557.543 327.931C558.177 327.559 558.649 327.03 558.961 326.343C559.272 325.656 559.427 324.839 559.427 323.89C559.427 322.949 559.274 322.139 558.966 321.46C558.659 320.777 558.2 320.253 557.589 319.889C556.978 319.521 556.217 319.337 555.307 319.337H553.053V328.489ZM566.644 329.923C565.802 329.923 565.075 329.737 564.464 329.365C563.857 328.99 563.389 328.466 563.059 327.794C562.732 327.119 562.569 326.334 562.569 325.438C562.569 324.543 562.732 323.753 563.059 323.07C563.389 322.384 563.848 321.848 564.436 321.465C565.028 321.078 565.719 320.885 566.508 320.885C566.963 320.885 567.413 320.961 567.857 321.112C568.301 321.264 568.705 321.511 569.069 321.852C569.433 322.19 569.724 322.638 569.94 323.196C570.156 323.753 570.264 324.44 570.264 325.256V325.825H563.525V324.664H568.898C568.898 324.171 568.8 323.731 568.602 323.344C568.409 322.956 568.132 322.651 567.771 322.427C567.415 322.203 566.994 322.091 566.508 322.091C565.973 322.091 565.51 322.224 565.119 322.49C564.732 322.752 564.434 323.093 564.225 323.514C564.017 323.935 563.912 324.387 563.912 324.869V325.643C563.912 326.303 564.026 326.863 564.254 327.322C564.485 327.777 564.806 328.125 565.216 328.364C565.626 328.599 566.102 328.716 566.644 328.716C566.997 328.716 567.316 328.667 567.601 328.568C567.889 328.466 568.138 328.314 568.346 328.113C568.555 327.908 568.716 327.654 568.83 327.35L570.128 327.715C569.991 328.155 569.762 328.542 569.439 328.876C569.116 329.206 568.718 329.464 568.244 329.65C567.769 329.832 567.236 329.923 566.644 329.923ZM575.859 329.923C575.04 329.923 574.334 329.73 573.742 329.343C573.15 328.956 572.695 328.422 572.376 327.743C572.057 327.064 571.898 326.288 571.898 325.415C571.898 324.527 572.061 323.744 572.387 323.065C572.717 322.382 573.177 321.848 573.765 321.465C574.357 321.078 575.047 320.885 575.836 320.885C576.451 320.885 577.005 320.999 577.498 321.226C577.992 321.454 578.396 321.773 578.711 322.182C579.026 322.592 579.221 323.07 579.297 323.617H577.954C577.851 323.218 577.624 322.865 577.271 322.558C576.922 322.247 576.451 322.091 575.859 322.091C575.336 322.091 574.876 322.228 574.482 322.501C574.091 322.771 573.786 323.152 573.565 323.645C573.349 324.135 573.241 324.71 573.241 325.37C573.241 326.045 573.347 326.633 573.56 327.134C573.776 327.635 574.08 328.024 574.47 328.301C574.865 328.578 575.328 328.716 575.859 328.716C576.208 328.716 576.525 328.656 576.81 328.534C577.094 328.413 577.335 328.238 577.533 328.011C577.73 327.783 577.87 327.51 577.954 327.191H579.297C579.221 327.707 579.033 328.172 578.734 328.586C578.438 328.995 578.045 329.322 577.555 329.565C577.07 329.804 576.504 329.923 575.859 329.923Z" fill="#535862"/>
<g clip-path="url(#clip0_8678_45018)">
<mask id="mask0_8678_45018" style="mask-type:alpha" maskUnits="userSpaceOnUse" x="66" y="131" width="525" height="170">
<rect width="524" height="169.56" transform="translate(66.7148 131.18)" fill="url(#paint0_linear_8678_45018)"/>
</mask>
<g mask="url(#mask0_8678_45018)">
<path opacity="0.08" d="M590.715 300.678H66.7148V179.992C67.5357 179.992 68.3706 179.868 69.1934 179.6L80.4287 175.946L90.2627 174.5L100.821 177.607C101.922 177.931 103.08 178.014 104.216 177.852L116.266 176.131H128.318C128.709 176.131 129.098 176.102 129.484 176.045L141.153 174.33H152.069C152.603 174.33 153.135 174.276 153.658 174.17L163.944 172.089L174.23 174.17C175.518 174.431 176.851 174.371 178.109 173.996L190.406 170.329L198.943 171.809C199.819 171.961 200.715 171.967 201.593 171.825L212.726 170.023L222.715 168.406L235.665 170.061C236.458 170.162 237.262 170.145 238.05 170.008L248.44 168.207C248.929 168.122 249.41 167.991 249.875 167.818L259.196 164.336L271.677 160.874L283.611 158.115H295.687C296.035 158.115 296.384 158.092 296.729 158.046L309.195 156.41L317.595 157.978C318.08 158.069 318.573 158.115 319.066 158.115H323.369L330.859 160.539L341.076 165.669C341.806 166.036 342.587 166.289 343.393 166.419L354.525 168.221C354.949 168.29 355.377 168.324 355.806 168.324H359.888C361.668 168.324 363.398 167.731 364.804 166.639L372.933 160.324L380.834 157.864L388.606 156.224L404.909 154.465C406.35 154.31 407.722 153.765 408.879 152.892L412.81 149.923L422.961 148.43L436.475 146.704H440.907C442.014 146.982 443.369 147.319 444.605 147.613C445.418 147.806 446.226 147.993 446.894 148.134C447.222 148.204 447.574 148.275 447.902 148.333C447.974 148.345 448.492 148.442 449.137 148.485C449.162 148.488 449.191 148.492 449.226 148.497C449.428 148.522 449.735 148.563 450.143 148.622C450.951 148.737 452.035 148.901 453.241 149.087C455.247 149.397 457.528 149.761 459.3 150.045L468.019 153.844C469.028 154.284 470.118 154.511 471.219 154.511H482.724C483.691 154.511 484.65 154.336 485.555 153.995L494.417 150.647L499.845 151.903C500.018 151.943 500.193 151.978 500.369 152.006L515.214 154.409C516.309 154.586 517.429 154.533 518.503 154.255L527.233 151.994L542.628 150.256C543.161 150.196 543.686 150.083 544.196 149.918C545.082 149.632 546.441 149.203 547.626 148.853C548.226 148.676 548.718 148.538 549.059 148.451C549.091 148.442 549.12 148.434 549.145 148.428C550.145 148.295 550.87 148.032 550.91 148.019C551.337 147.879 551.748 147.719 552.075 147.585C552.749 147.311 553.514 146.968 554.23 146.635C555.012 146.272 555.838 145.874 556.596 145.503H562.14C564.37 145.503 566.501 144.573 568.018 142.937L571.205 139.498H579.582C580.986 139.498 582.365 139.128 583.582 138.427L590.715 134.319V300.678Z" fill="#4D7DFE"/>
</g>
<path d="M66.7148 171.979L78.5902 168.117L90.8367 166.315L103.083 169.918L115.701 168.117H128.318L140.565 166.315H152.069L163.944 163.913L175.82 166.315L189.922 162.111L200.313 163.913L211.446 162.111L222.579 160.31L236.681 162.111L247.072 160.31L256.721 156.706L269.709 153.103L282.698 150.1H295.687L309.417 148.299L319.066 150.1H324.633L333.91 153.103L344.672 158.508L355.805 160.31H359.888L369.165 153.103L378.814 150.1L387.349 148.299L404.049 146.497L409.616 142.293L421.862 140.491L435.964 138.69H441.902C444.252 139.29 449.101 140.491 449.695 140.491C450.289 140.491 457.859 141.692 461.57 142.293L471.219 146.497H482.723L493.856 142.293L501.65 144.095L516.494 146.497L525.771 144.095L541.729 142.293C543.585 141.692 547.444 140.491 548.038 140.491C548.632 140.491 552.738 138.49 554.718 137.489H562.14L567.706 131.483H579.582L590.715 125.069" stroke="#4D7DFE" stroke-width="2.6713" stroke-linecap="round" stroke-linejoin="round"/>
<path d="M66.7148 218.698L78.5902 216.238L90.8367 215.091L103.083 217.386L115.701 216.238H128.318L140.565 215.091H152.069L163.944 213.56L175.82 215.091L189.922 212.413L200.313 213.56L211.446 212.413L222.579 211.265L236.681 212.413L247.072 211.265L256.721 208.97L269.709 206.675L282.698 204.762H295.687L309.417 203.614L319.066 204.762H324.633L333.91 206.675L344.672 210.118L355.805 211.265H359.888L369.165 206.675L378.814 204.762L387.349 203.614L404.049 202.467L409.616 199.789L421.862 198.641L435.964 197.494H441.902C444.252 197.876 449.101 198.641 449.695 198.641C450.289 198.641 457.859 199.406 461.57 199.789L471.219 202.467H482.723L493.856 199.789L501.65 200.937L516.494 202.467L525.771 200.937L541.729 199.789C543.585 199.406 547.444 198.641 548.038 198.641C548.632 198.641 552.738 197.366 554.718 196.729H562.14L567.706 192.903H579.582L590.715 188.818" stroke="#99B5FF" stroke-width="2.6713" stroke-linecap="round" stroke-linejoin="round"/>
<path d="M66.7148 277.825L78.5902 271.29L90.8367 268.241L103.083 274.339L115.701 271.29H128.318L140.565 268.241H152.069L163.944 264.175L175.82 268.241L189.922 261.127L200.313 264.175L211.446 261.127L222.579 258.078L236.681 261.127L247.072 258.078L256.721 251.98L269.709 245.882L282.698 240.8H295.687L309.417 237.751L319.066 240.8H324.633L333.91 245.882L344.672 255.029L355.805 258.078H359.888L369.165 245.882L378.814 240.8L387.349 237.751L404.049 234.702L409.616 227.588L421.862 224.539L435.964 221.49H441.902C444.252 222.506 449.101 224.539 449.695 224.539C450.289 224.539 457.859 226.572 461.57 227.588L471.219 234.702H482.723L493.856 227.588L501.65 230.637L516.494 234.702L525.771 230.637L541.729 227.588C543.585 226.572 547.444 224.539 548.038 224.539C548.632 224.539 552.738 221.151 554.718 219.457H562.14L567.706 209.294H579.582L590.715 198.44" stroke="#0145FE" stroke-width="2.6713" stroke-linecap="round" stroke-linejoin="round"/>
</g>
</g>
<defs>
<filter id="filter0_dd_8678_45018" x="-8.08334" y="5.34058e-05" width="673.167" height="443.722" filterUnits="userSpaceOnUse" color-interpolation-filters="sRGB">
<feFlood flood-opacity="0" result="BackgroundImageFix"/>
<feColorMatrix in="SourceAlpha" type="matrix" values="0 0 0 0 0 0 0 0 0 0 0 0 0 0 0 0 0 0 127 0" result="hardAlpha"/>
<feMorphology radius="2.6713" operator="erode" in="SourceAlpha" result="effect1_dropShadow_8678_45018"/>
<feOffset dy="5.34259"/>
<feGaussianBlur stdDeviation="2.6713"/>
<feComposite in2="hardAlpha" operator="out"/>
<feColorMatrix type="matrix" values="0 0 0 0 0.0392157 0 0 0 0 0.0496732 0 0 0 0 0.0705882 0 0 0 0.04 0"/>
<feBlend mode="normal" in2="BackgroundImageFix" result="effect1_dropShadow_8678_45018"/>
<feColorMatrix in="SourceAlpha" type="matrix" values="0 0 0 0 0 0 0 0 0 0 0 0 0 0 0 0 0 0 127 0" result="hardAlpha"/>
<feMorphology radius="16.0278" operator="erode" in="SourceAlpha" result="effect2_dropShadow_8678_45018"/>
<feOffset dy="32.0556"/>
<feGaussianBlur stdDeviation="32.0556"/>
<feComposite in2="hardAlpha" operator="out"/>
<feColorMatrix type="matrix" values="0 0 0 0 0.0392157 0 0 0 0 0.0496732 0 0 0 0 0.0705882 0 0 0 0.18 0"/>
<feBlend mode="normal" in2="effect1_dropShadow_8678_45018" result="effect2_dropShadow_8678_45018"/>
<feBlend mode="normal" in="SourceGraphic" in2="effect2_dropShadow_8678_45018" result="shape"/>
</filter>
<linearGradient id="paint0_linear_8678_45018" x1="262" y1="0" x2="262" y2="169.56" gradientUnits="userSpaceOnUse">
<stop/>
<stop offset="1" stop-opacity="0"/>
</linearGradient>
<clipPath id="clip0_8678_45018">
<rect width="524" height="230.938" fill="white" transform="translate(66.7148 69.7407)"/>
</clipPath>
</defs>
</svg>
